<?xml version="1.0" standalone="no"?>
<!DOCTYPE svg PUBLIC "-//W3C//DTD SVG 20010904//EN"
 "http://www.w3.org/TR/2001/REC-SVG-20010904/DTD/svg10.dtd">
<svg version="1.0" xmlns="http://www.w3.org/2000/svg"
 width="600.000000pt" height="600.000000pt" viewBox="0 0 600.000000 600.000000"
 preserveAspectRatio="xMidYMid meet">
<metadata>
Created by potrace 1.11, written by Peter Selinger 2001-2013
</metadata>
<g transform="translate(0.000000,600.000000) scale(0.100000,-0.100000)"
fill="#000000" stroke="none">
<path d="M3635 5190 c-105 -12 -207 -32 -198 -39 4 -4 42 -22 83 -40 110 -48
323 -178 391 -239 93 -84 99 -138 24 -220 -50 -56 -122 -85 -215 -88 -146 -5
-272 33 -536 161 -243 118 -360 157 -485 161 -176 6 -281 -46 -402 -197 -58
-73 -198 -360 -183 -376 1 -1 29 5 61 13 116 31 220 43 340 40 128 -4 153 -7
218 -33 125 -49 206 -134 255 -265 31 -83 34 -100 38 -235 3 -134 -10 -203
-59 -299 -83 -163 -288 -237 -467 -168 -62 25 -180 96 -274 166 -246 185 -496
299 -661 301 -130 2 -208 -45 -261 -159 -36 -77 -44 -139 -43 -343 0 -202 -9
-254 -59 -341 -77 -135 -209 -192 -430 -184 -62 2 -116 5 -120 8 -4 2 -39 7
-77 11 l-70 7 65 -67 c213 -218 427 -291 619 -212 102 43 213 133 306 252 98
126 154 157 285 161 147 5 270 -51 409 -186 123 -120 192 -264 193 -405 0 -57
-5 -82 -29 -135 -32 -69 -99 -146 -174 -197 -51 -35 -161 -77 -234 -88 -27 -5
-53 -9 -57 -11 -5 -1 -13 -2 -18 -3 -17 -2 5 -34 59 -86 123 -118 253 -159
501 -159 190 0 307 13 450 51 326 85 389 97 500 96 199 -4 307 -87 303 -233
-4 -142 -105 -280 -275 -374 -141 -78 -295 -110 -530 -109 -65 0 -118 -1 -118
-4 0 -7 198 -98 321 -146 108 -43 294 -103 349 -113 14 -2 54 -11 90 -19 109
-24 177 -30 370 -30 203 0 283 12 444 66 411 137 740 479 936 974 79 199 146
466 166 660 4 33 8 63 10 66 1 3 6 64 11 135 25 432 -22 826 -143 1199 -40
121 -41 124 -109 278 -215 483 -596 842 -1010 952 -169 45 -395 63 -560 45z"/>
</g>
</svg>
