<?xml version="1.0" encoding="utf-8"?>
<!-- Generator: Adobe Illustrator 22.0.0, SVG Export Plug-In . SVG Version: 6.00 Build 0)  -->
<svg version="1.1" id="Ebene_2" xmlns="http://www.w3.org/2000/svg" xmlns:xlink="http://www.w3.org/1999/xlink" x="0px" y="0px"
	 viewBox="0 0 127.2 75.3" style="enable-background:new 0 0 127.2 75.3;" xml:space="preserve">
<style type="text/css">
	.st0{fill:#FFFFFF;}
</style>
<g>
	<g>
		<g>
			<circle class="st0" cx="66.3" cy="8" r="1.5"/>
			<circle class="st0" cx="62.3" cy="5.9" r="1.2"/>
			<circle class="st0" cx="59.5" cy="9.5" r="1"/>
			<circle class="st0" cx="64.8" cy="3.5" r="0.9"/>
			<circle class="st0" cx="62.7" cy="1.4" r="0.9"/>
			<path class="st0" d="M67.8,14.9c0.5-0.2,0.9-0.8,0.9-1.4c0-0.8-0.7-1.5-1.5-1.5c-0.6,0-1.2,0.4-1.4,0.9L65,12.2
				c0.2-0.4,0.4-0.8,0.4-1.2c0-1.3-1-2.3-2.3-2.3c-1.3,0-2.3,1-2.3,2.3c0,0.7,0.3,1.4,0.9,1.8l-1.4,1.4c-0.2-0.6-0.8-0.9-1.4-0.9
				c-0.8,0-1.5,0.7-1.5,1.5c0,0.6,0.4,1.2,0.9,1.4L42.1,32.3l21.5,21.5l21.5-21.5L67.8,14.9z M62.1,44c-3.4-1-6.4-5.5-6.6-11.6
				c-0.2-6.6,3.1-12.2,7.6-12.8c-1.3,1.2-1.9,2.5-2.1,5.1c-0.2,4.4,2.8,7.8,3.7,13.5C65.6,43.5,63.2,44.3,62.1,44z M64.6,44
				c1.3-1.3,1.9-2.5,2.1-5.1c0.2-4.4-2.8-7.8-3.7-13.5c-0.9-5.3,1.4-6.2,2.6-5.9c3.2,1,6.4,5.6,6.7,11.7
				C72.4,37.8,69.1,43.4,64.6,44z"/>
		</g>
	</g>
	<g>
		<g>
			<g>
				<path class="st0" d="M32,69c0-3.2,1-5.3,2.5-6.5c0.8-0.7,1.9-1.2,3.1-1.2c0.5,0,1,0,1.4,0.2c0.1,0,0.1,0.1,0.1,0.2l0.3,2.7
					c0,0.1-0.2,0.2-0.3,0.2c0,0,0,0-0.1,0c-0.4-0.8-0.7-1.3-1.1-2.1c0-0.1-0.1-0.3-0.2-0.3c-0.1-0.1-0.2-0.1-0.4-0.1
					c-0.6,0-1,0.4-1.4,1c-0.8,1.3-1.3,2.8-1.3,5.6c0,4,1.6,4.8,2.6,4.8c0.5,0,0.9-0.1,1.1-0.1c0.2-0.1,0.8-0.3,1.1-0.4
					c0,0,0.1,0.6,0.1,0.7c0,0,0,0.1-0.1,0.1c-0.3,0.2-0.9,0.6-1.5,0.8c-0.3,0.1-0.8,0.2-1.5,0.2C34.1,74.7,32,73.1,32,69L32,69z"/>
				<path class="st0" d="M45.5,68.7c0-0.5,0-0.8-0.1-1.1c-0.1-0.9-0.5-1.4-1.3-1.4c-0.7,0-1.4,0.4-2.2,1.3c0,0,0,0-0.1,0
					c-0.1,0-0.3-0.5-0.2-0.6c1.2-1.6,2.5-2.2,3.9-2.2c1.9,0,2.4,1.9,2.4,4c0,0.4,0,1.9-0.1,2.5c0,1-0.1,2.1-0.1,2.5
					c0,0.1,0,0.2,0.2,0.2l0.6,0.2c0.1,0,0.1,0.2,0.1,0.3c0,0,0,0-0.1,0c-0.3,0-0.9,0-1.5,0c-0.5,0-1,0-1.2,0c0,0-0.1,0-0.1-0.1
					c0-0.2,0-0.8,0-1.3c0-0.1,0-0.4,0-0.5l0,0c-0.1,0.1-0.1,0.3-0.2,0.4c-0.4,1-1.1,1.7-2.4,1.7c-1.2,0-2.2-1-2.2-3
					c0-1.8,0.9-3.8,2.8-3.8c0.7,0,1.2,0.2,1.5,0.5C45.2,68.5,45.3,68.6,45.5,68.7L45.5,68.7z M44.2,73.2c0.5,0,1.1-0.3,1.4-1.6
					c0-0.2,0.1-0.6,0.1-0.7c0-0.1,0-0.5,0-0.7c-0.1-0.7-0.5-1.3-1.3-1.3c-0.8,0-1,1.1-1,2.6C43.3,72.8,43.6,73.2,44.2,73.2
					L44.2,73.2z"/>
				<path class="st0" d="M92.2,68.7c0-0.5,0-0.8-0.1-1.1c-0.1-0.9-0.5-1.4-1.3-1.4c-0.7,0-1.4,0.4-2.2,1.3c0,0,0,0-0.1,0
					c-0.1,0-0.3-0.5-0.2-0.6c1.2-1.6,2.5-2.2,3.9-2.2c1.9,0,2.4,1.9,2.4,4c0,0.4,0,1.9-0.1,2.5c0,1-0.1,2.1-0.1,2.5
					c0,0.1,0,0.2,0.2,0.2l0.6,0.2c0.1,0,0.1,0.2,0.1,0.3c0,0,0,0-0.1,0c-0.3,0-0.9,0-1.5,0c-0.5,0-1,0-1.2,0c0,0-0.1,0-0.1-0.1
					c0-0.2,0-0.8,0-1.3c0-0.1,0-0.4,0-0.5l0,0c-0.1,0.1-0.1,0.3-0.2,0.4c-0.4,1-1.1,1.7-2.4,1.7c-1.2,0-2.2-1-2.2-3
					c0-1.8,0.9-3.8,2.8-3.8c0.7,0,1.2,0.2,1.5,0.5C91.9,68.5,92,68.6,92.2,68.7L92.2,68.7z M90.8,73.2c0.5,0,1.1-0.3,1.4-1.6
					c0-0.2,0.1-0.6,0.1-0.7c0-0.1,0-0.5,0-0.7c-0.1-0.7-0.5-1.3-1.3-1.3c-0.8,0-1,1.1-1,2.6C89.9,72.8,90.3,73.2,90.8,73.2
					L90.8,73.2z"/>
				<path class="st0" d="M55.7,65.1C55.7,65.1,55.7,65.1,55.7,65.1c0,0.1,0,0.7-0.1,0.7L53,66.1c0,1.2-0.1,3-0.1,3.4
					c0,0.7-0.1,3.7-0.1,4.3c0,0.2,0.1,0.2,0.2,0.2l1,0.2c0.1,0,0.1,0.2,0.1,0.4c0,0,0,0-0.1,0c-0.9,0-1.6,0-2.4,0c-0.7,0-1.3,0-2,0
					c0,0,0,0,0,0c0,0,0-0.4,0.1-0.4l0.8-0.1c0.1,0,0.2-0.1,0.2-0.2c0-0.8-0.1-3.1-0.1-4.2c0-0.8-0.1-3.2-0.1-3.5l-1.3,0
					c-0.1,0-0.1,0-0.1-0.1c0-0.1,0-0.6,0.1-0.7c0.1-0.1,0.2-0.3,0.3-0.3l1,0c0.1-2.5,1.5-4.8,4.3-4.8c0.4,0,0.7,0,1.1,0.2
					c0.1,0,0.1,0.1,0.1,0.1l0.1,2.2c0,0.1-0.2,0.2-0.3,0.2c0,0,0,0-0.1-0.1c-0.3-0.5-0.6-0.9-0.8-1.2c-0.1-0.2-0.2-0.3-0.3-0.4
					c-0.1-0.1-0.3-0.1-0.4-0.1c-1,0-1.2,1.7-1.2,4.1L55.7,65.1z"/>
				<path class="st0" d="M63.1,65.1C63.1,65.1,63.2,65.1,63.1,65.1c0,0.1,0,0.7-0.1,0.7l-2.5,0.3c0,1.2-0.1,3-0.1,3.4
					c0,0.7-0.1,3.7-0.1,4.3c0,0.2,0.1,0.2,0.2,0.2l1,0.2c0.1,0,0.1,0.2,0.1,0.4c0,0,0,0-0.1,0c-0.9,0-1.6,0-2.4,0c-0.7,0-1.3,0-2,0
					c0,0,0,0,0,0c0,0,0-0.4,0.1-0.4l0.8-0.1c0.1,0,0.2-0.1,0.2-0.2c0-0.8-0.1-3.1-0.1-4.2c0-0.8-0.1-3.2-0.1-3.5l-1.3,0
					c-0.1,0-0.1,0-0.1-0.1c0-0.1,0-0.6,0.1-0.7c0.1-0.1,0.2-0.3,0.3-0.3l1,0c0.1-2.5,1.5-4.8,4.3-4.8c0.4,0,0.7,0,1.1,0.2
					c0.1,0,0.1,0.1,0.1,0.1l0.1,2.2c0,0.1-0.2,0.2-0.3,0.2c0,0,0,0-0.1-0.1c-0.3-0.5-0.6-0.9-0.8-1.2c-0.1-0.2-0.2-0.3-0.3-0.4
					c-0.1-0.1-0.3-0.1-0.4-0.1c-1,0-1.2,1.7-1.2,4.1L63.1,65.1z"/>
				<path class="st0" d="M70.2,68.9c0,0.4-0.2,0.6-0.4,0.7c-0.5,0.2-2.9,0.4-4,0.2c0,0.6,0,1.2,0.1,1.5c0.3,1.5,0.8,2.3,1.9,2.3
					c0.4,0,0.9-0.1,1.1-0.2c0.4-0.1,0.7-0.3,1.2-0.5c0,0,0.1,0.4,0.1,0.5c0,0,0,0.1,0,0.1c-0.4,0.3-1.5,0.9-2.1,1.1
					c-0.3,0.1-0.7,0.1-1.3,0.1c-2.1,0-3.4-1.4-3.4-4.3c0-2.5,1.3-5.7,4-5.7C69.1,64.7,70.2,67,70.2,68.9L70.2,68.9z M66.9,65.4
					c-0.7,0-1.2,1.1-1.2,3.8c0.9,0.1,1.5-0.1,1.7-0.1c0.2-0.1,0.4-0.3,0.4-0.9C67.8,67.5,67.8,65.4,66.9,65.4L66.9,65.4z"/>
				<path class="st0" d="M73,73.8c0.2,0,0.5,0,0.7,0c0.6,0,2.3-0.1,3.2-0.3c0.1,0,0.3-0.2,0.4-0.4l0.6-1.1c0,0,0,0,0.1,0
					c0.1,0,0.3,0.1,0.3,0.1l-0.3,2.3c0,0.1-0.1,0.2-0.2,0.2c-0.4,0-1.5,0-3.7,0c-0.8,0-1.3,0-2.3,0c-0.3,0-0.4-0.1-0.6-0.5
					c-0.1-0.1-0.1-0.4-0.1-0.4c0,0,0-0.1,0-0.1c1.4-2.3,3.1-5.4,4-6.9c0.1-0.2,0.3-0.6,0.5-0.8v-0.1c-0.1,0-0.4-0.1-0.5-0.1
					c-0.8-0.1-1.5-0.2-1.9-0.2c-0.1,0-0.3,0.1-0.4,0.3L72,67.2c0,0,0,0-0.1,0c0,0-0.4-0.1-0.3-0.1l0.3-2.1c0-0.1,0.1-0.2,0.2-0.2
					c0.3,0,1.1,0,2.3,0c1.5,0,3,0,3.4,0c0.1,0,0.1,0,0.1,0.1c0.3,0.5,0.4,0.8,0.4,1c0,0.2,0,0.3-0.2,0.6c-1.2,2-3.3,4.9-4.4,6.4
					C73.5,73.2,73.2,73.6,73,73.8L73,73.8z"/>
				<path class="st0" d="M81.3,73.8c0.2,0,0.5,0,0.7,0c0.6,0,2.3-0.1,3.2-0.3c0.1,0,0.3-0.2,0.4-0.4l0.6-1.1c0,0,0,0,0.1,0
					c0.1,0,0.3,0.1,0.3,0.1l-0.3,2.3c0,0.1-0.1,0.2-0.2,0.2c-0.4,0-1.5,0-3.7,0c-0.8,0-1.3,0-2.3,0c-0.3,0-0.4-0.1-0.6-0.5
					c-0.1-0.1-0.1-0.4-0.1-0.4c0,0,0-0.1,0-0.1c1.4-2.3,3.1-5.4,4-6.9c0.1-0.2,0.3-0.6,0.5-0.8v-0.1c-0.1,0-0.4-0.1-0.5-0.1
					c-0.8-0.1-1.5-0.2-1.9-0.2c-0.1,0-0.3,0.1-0.4,0.3l-0.8,1.4c0,0,0,0-0.1,0c0,0-0.4-0.1-0.3-0.1l0.3-2.1c0-0.1,0.1-0.2,0.2-0.2
					c0.3,0,1.1,0,2.3,0c1.5,0,3,0,3.4,0c0.1,0,0.1,0,0.1,0.1c0.3,0.5,0.4,0.8,0.4,1c0,0.2,0,0.3-0.2,0.6c-1.2,2-3.3,4.9-4.4,6.4
					C81.7,73.2,81.5,73.6,81.3,73.8L81.3,73.8z"/>
			</g>
		</g>
	</g>
</g>
</svg>
