<?xml version="1.0" encoding="utf-8"?>
<!-- Generator: Adobe Illustrator 22.0.0, SVG Export Plug-In . SVG Version: 6.00 Build 0)  -->
<svg version="1.1" xmlns="http://www.w3.org/2000/svg" xmlns:xlink="http://www.w3.org/1999/xlink" x="0px" y="0px"
     viewBox="0 0 127.2 75.3" style="enable-background:new 0 0 127.2 75.3;" width="127.2"
     height="75.3" xml:space="preserve">
<style type="text/css">
.st0{display:none;}
.st1{display:inline;}
.st2{fill:#FFFFFF;}
</style>
<g id="Ebene_2" class="st0">
<rect x="-349" y="-301" class="st1" width="841.9" height="595.3"/>
</g>
<g id="Ebene_3">

<path class="st2" d="M51.3,16.8l0,27.1h11.7V16.8L51.3,16.8z M59,38.7h-3.9V22H59V38.7z"/>

<rect x="42.2" y="26.2" class="st2" width="7.8" height="8.2"/>
<polygon class="st2" points="59,7.2 59,15.6 64.2,15.6 64.2,43.9 73.2,43.9 73.2,7.2 		"/>
<polygon class="st2" points="83.6,33.9 83.6,43.9 74.5,43.9 74.5,33.9 		"/>
<polygon class="st2" points="74.5,32.7 83.6,32.7 83.6,22.7 78,22.7 78,17.5 74.5,17.5 		"/>
<rect x="42.2" y="35.7" class="st2" width="7.7" height="8.2"/>

<polygon class="st2" points="4.8,59.5 16.5,59.5 16.5,57.5 7.5,57.5 7.5,54.8 15.7,54.8 15.7,53 7.5,53 7.5,50.6 16.5,50.6
				16.5,48.7 4.8,48.7 			"/>
<polygon class="st2"
         points="26.7,50.6 31.9,50.6 31.9,48.7 18.9,48.7 18.9,50.6 24.1,50.6 24.1,59.5 26.7,59.5 			"/>
<polygon class="st2" points="37,50.6 46,50.6 46,48.7 34.3,48.7 34.3,59.5 46,59.5 46,57.5 37,57.5 37,54.8 45.3,54.8 45.3,53
				37,53 			"/>
<path class="st2" d="M58.7,59.5h2.7v-2.1H56h-4.3v-6.7h9.7c0,0,0,0,0,0h0v-2H56v0h-4.1c-1.1,0-1.8,0.2-2.2,0.5
				c-0.4,0.3-0.6,1-0.6,2v5.7c0,1,0.2,1.7,0.6,2c0.4,0.4,1.1,0.5,2.2,0.5h6.7C58.6,59.5,58.7,59.5,58.7,59.5"/>
<polygon class="st2"
         points="71.6,50.6 76.8,50.6 76.8,48.7 63.8,48.7 63.8,50.6 69,50.6 69,59.5 71.6,59.5 			"/>
<path class="st2" d="M91.9,59c0.4-0.3,0.6-1,0.6-2v-8.2h-2.6v8.8h-7.5v-8.8h-2.6v8.2c0,1,0.2,1.7,0.6,2c0.4,0.3,1.1,0.5,2.2,0.5
				h7.1C90.7,59.5,91.5,59.3,91.9,59"/>
<path class="st2" d="M105.4,53.6h-7.2v-3h7.2V53.6z M107.8,59.5l-2.2-4.1c1.5-0.1,2.2-0.8,2.2-2v-2.5c0-1.4-0.8-2.1-2.5-2.1h-9.7
				v10.8h2.6v-4.1h4.8l2.2,4.1H107.8z"/>
<polygon class="st2" points="113.5,57.5 113.5,54.8 121.7,54.8 121.7,53 113.5,53 113.5,50.6 122.5,50.6 122.5,48.7 110.8,48.7
				110.8,59.5 122.5,59.5 122.5,57.5 			"/>

<path class="st2" d="M105.5,66.9c0,1.1,0.9,1.6,2,1.6c1,0,1.9-0.4,1.9-1.4c0-0.5-0.3-1-0.9-1.1c-0.2-0.1-1.3-0.3-1.4-0.3
			c-0.3-0.1-0.6-0.3-0.6-0.6c0-0.5,0.5-0.6,0.9-0.6c0.6,0,1,0.2,1,0.8h0.8c0-0.9-0.8-1.4-1.8-1.4c-0.9,0-1.8,0.4-1.8,1.3
			c0,0.5,0.2,0.9,1.1,1.1c0.7,0.2,1.1,0.3,1.4,0.4c0.2,0.1,0.4,0.2,0.4,0.5c0,0.3-0.3,0.7-1,0.7c-0.7,0-1.2-0.3-1.2-1H105.5z"/>
<polygon class="st2"
         points="100.3,64.6 101.9,64.6 101.9,68.4 102.7,68.4 102.7,64.6 104.2,64.6 104.2,63.9 100.3,63.9 		"/>
<path class="st2" d="M99,65.4c-0.1-1-1-1.5-2-1.5c-1.4,0-2.3,1.1-2.3,2.3c0,1.3,0.9,2.3,2.3,2.3c1.2,0,2-0.7,2-1.8h-0.8
			c-0.1,0.7-0.5,1.2-1.2,1.2c-1,0-1.5-0.8-1.5-1.7c0-0.9,0.4-1.7,1.5-1.7c0.7,0,1.1,0.4,1.2,0.9H99z"/>
<polygon class="st2" points="89.4,68.4 92.9,68.4 92.9,67.7 90.3,67.7 90.3,66.4 92.7,66.4 92.7,65.8 90.3,65.8 90.3,64.6
			92.9,64.6 92.9,63.9 89.4,63.9 		"/>
<polygon class="st2"
         points="83.6,64.6 85.1,64.6 85.1,68.4 85.9,68.4 85.9,64.6 87.5,64.6 87.5,63.9 83.6,63.9 		"/>
<rect x="80.8" y="63.9" class="st2" width="0.8" height="4.5"/>
<polygon class="st2" points="74.5,68.4 75.4,68.4 75.4,66.4 77.5,66.4 77.5,68.4 78.4,68.4 78.4,63.9 77.5,63.9 77.5,65.7
			75.4,65.7 75.4,63.9 74.5,63.9 		"/>
<path class="st2" d="M72.4,65.4c-0.1-1-1-1.5-2-1.5c-1.4,0-2.3,1.1-2.3,2.3c0,1.3,0.9,2.3,2.3,2.3c1.2,0,2-0.7,2-1.8h-0.8
			c-0.1,0.7-0.5,1.2-1.2,1.2c-1,0-1.5-0.8-1.5-1.7c0-0.9,0.4-1.7,1.5-1.7c0.7,0,1.1,0.4,1.2,0.9H72.4z"/>
<polygon class="st2" points="47.8,68.4 51.1,68.4 51.1,67.7 48.7,67.7 48.7,63.9 47.8,63.9 		"/>
<polygon class="st2"
         points="36.7,64.6 38.3,64.6 38.3,68.4 39.1,68.4 39.1,64.6 40.6,64.6 40.6,63.9 36.7,63.9 		"/>
<rect x="33.9" y="63.9" class="st2" width="0.8" height="4.5"/>
<path class="st2" d="M31.6,66.1h-2v0.6h1.3c0,0.8-0.5,1.2-1.3,1.2c-1,0-1.5-0.8-1.5-1.7c0-0.9,0.4-1.7,1.5-1.7
			c0.6,0,1.2,0.3,1.2,0.9h0.8c-0.1-1-1-1.5-2.1-1.5c-1.4,0-2.3,1.1-2.3,2.3c0,1.3,0.9,2.3,2.3,2.3c0.6,0,1-0.2,1.4-0.6l0.1,0.5h0.5
			V66.1z"/>
<rect x="24.2" y="63.9" class="st2" width="0.8" height="4.5"/>
<path class="st2" d="M62.2,68.4H63v-1.8h1.2c0.8,0,1,0.4,1,1.2c0,0.2,0,0.5,0.1,0.7h0.9c-0.2-0.2-0.3-0.7-0.3-1.2
			c0-0.7-0.4-0.9-0.7-0.9v0c0.2-0.1,0.8-0.3,0.8-1.1c0-0.8-0.5-1.2-1.6-1.2h-2.3V68.4z M63,64.6h1.4c0.4,0,0.8,0.1,0.8,0.7
			c0,0.5-0.3,0.7-0.8,0.7H63V64.6z"/>
<path class="st2" d="M55.8,68.4h0.9l0.5-1.2H59l0.5,1.2h0.9l-1.8-4.5h-0.9L55.8,68.4z M58,64.7L58,64.7L58,64.7l0.7,1.9h-1.5
			L58,64.7z"/>
<path class="st2" d="M41.4,68.4h0.9l0.5-1.2h1.9l0.5,1.2H46l-1.8-4.5h-0.9L41.4,68.4z M43.7,64.7L43.7,64.7L43.7,64.7l0.7,1.9
			h-1.5L43.7,64.7z"/>
<path class="st2" d="M18,68.4h2c1.5,0,2.1-1,2.1-2.2c0-1.2-0.6-2.2-2.1-2.2h-2V68.4z M18.8,64.6h0.8c1.3,0,1.6,0.7,1.6,1.6
			c0,0.9-0.3,1.6-1.6,1.6h-0.8V64.6z"/>
</g>
</svg>
