<?xml version="1.0" encoding="utf-8"?>
<!-- Generator: Adobe Illustrator 22.0.1, SVG Export Plug-In . SVG Version: 6.00 Build 0)  -->
<svg version="1.1" id="Ebene_1" xmlns="http://www.w3.org/2000/svg" xmlns:xlink="http://www.w3.org/1999/xlink" x="0px" y="0px"
	 viewBox="0 0 442.9 361.3" style="enable-background:new 0 0 442.9 361.3;" xml:space="preserve">
<style type="text/css">
	.st0{fill:#FFFFFF;}
</style>
<g>
	<path class="st0" d="M166.7,93.6v132.7h57.2V93.7L166.7,93.6"/>
	<rect x="122.5" y="139.6" class="st0" width="38" height="40.2"/>
	<polyline class="st0" points="204.7,46.2 204.7,87.4 230.2,87.4 230.2,226.3 274.4,226.3 274.4,46.2 204.7,46.2 	"/>
	<polyline class="st0" points="325.1,177.5 325.1,226.3 280.6,226.3 280.6,177.5 325.1,177.5 	"/>
	<polyline class="st0" points="280.6,171.3 325.1,171.3 325.1,122.3 297.5,122.3 297.5,96.9 280.6,96.9 280.6,171.3 	"/>
	<rect x="122.5" y="186.1" class="st0" width="38" height="40.2"/>
</g>
<g>
	<path class="st0" d="M27.1,270v13.5h17.1v7H27.1v13.8h21.7v7.3H18v-48.8h30.8v7.2H27.1z"/>
	<path class="st0" d="M103,270.3H88.3v41.3h-9.1v-41.3H64.5v-7.5H103V270.3z"/>
	<path class="st0" d="M130.7,270v13.5h17.1v7h-17.1v13.8h21.7v7.3h-30.8v-48.8h30.8v7.2H130.7z"/>
	<path class="st0" d="M205,300.1c0.5,0,0.9,0.2,1.3,0.6l3.6,3.9c-2,2.5-4.4,4.3-7.3,5.6c-2.9,1.3-6.4,2-10.4,2
		c-3.6,0-6.9-0.6-9.8-1.9c-2.9-1.2-5.4-3-7.4-5.2s-3.6-4.8-4.7-7.9c-1.1-3.1-1.6-6.4-1.6-10c0-3.7,0.6-7,1.8-10.1
		c1.2-3,2.8-5.7,4.9-7.9c2.1-2.2,4.7-3.9,7.6-5.1c2.9-1.2,6.2-1.8,9.8-1.8s6.7,0.6,9.5,1.8c2.8,1.2,5.1,2.7,7,4.6l-3,4.2
		c-0.2,0.3-0.4,0.5-0.7,0.7s-0.7,0.3-1.2,0.3c-0.3,0-0.7-0.1-1-0.3c-0.4-0.2-0.8-0.4-1.2-0.7c-0.4-0.3-0.9-0.6-1.5-0.9
		s-1.2-0.6-2-0.9c-0.7-0.3-1.6-0.5-2.6-0.7s-2.1-0.3-3.4-0.3c-2.2,0-4.2,0.4-6,1.2c-1.8,0.8-3.4,1.9-4.7,3.4s-2.3,3.3-3,5.4
		s-1.1,4.6-1.1,7.3c0,2.7,0.4,5.2,1.2,7.3c0.8,2.1,1.8,3.9,3.2,5.4c1.3,1.5,2.9,2.6,4.7,3.4s3.7,1.2,5.8,1.2c1.2,0,2.4-0.1,3.4-0.2
		s1.9-0.3,2.8-0.6c0.8-0.3,1.6-0.7,2.4-1.1c0.8-0.5,1.5-1,2.2-1.7c0.2-0.2,0.5-0.4,0.7-0.5C204.5,300.2,204.8,300.1,205,300.1z"/>
	<path class="st0" d="M262.4,270.3h-14.7v41.3h-9.1v-41.3h-14.7v-7.5h38.5V270.3z"/>
	<path class="st0" d="M300.6,304.3c1.8,0,3.3-0.3,4.7-0.9c1.4-0.6,2.5-1.4,3.5-2.5c0.9-1.1,1.7-2.3,2.2-3.8s0.8-3.2,0.8-5.1v-29.2
		h9.1V292c0,2.9-0.5,5.6-1.4,8c-0.9,2.5-2.3,4.6-4,6.4s-3.9,3.2-6.4,4.2s-5.3,1.5-8.4,1.5c-3.2,0-6-0.5-8.5-1.5s-4.6-2.4-6.4-4.2
		c-1.7-1.8-3.1-3.9-4-6.4s-1.4-5.1-1.4-8v-29.2h9.1V292c0,1.9,0.3,3.6,0.8,5.1s1.2,2.8,2.2,3.9s2.1,1.9,3.5,2.5
		C297.3,304,298.8,304.3,300.6,304.3z"/>
	<path class="st0" d="M381.3,311.6h-8.2c-1.6,0-2.7-0.6-3.4-1.8l-10.3-15.6c-0.4-0.6-0.8-1-1.3-1.2s-1.1-0.4-2-0.4h-3.9v19.1h-9.1
		v-48.8H358c3.3,0,6.1,0.3,8.5,1s4.3,1.6,5.8,2.9c1.5,1.2,2.6,2.7,3.4,4.4c0.7,1.7,1.1,3.6,1.1,5.7c0,1.6-0.2,3.2-0.7,4.7
		s-1.2,2.8-2.1,4s-2,2.2-3.4,3.1c-1.3,0.9-2.9,1.6-4.6,2.1c0.6,0.3,1.1,0.7,1.6,1.2s0.9,1,1.4,1.6L381.3,311.6z M358,286
		c1.7,0,3.2-0.2,4.5-0.6s2.3-1,3.1-1.8c0.8-0.8,1.4-1.6,1.8-2.7c0.4-1,0.6-2.2,0.6-3.4c0-2.5-0.8-4.4-2.4-5.7c-1.6-1.3-4.1-2-7.5-2
		h-5.8V286H358z"/>
	<path class="st0" d="M407.9,270v13.5H425v7h-17.1v13.8h21.7v7.3h-30.8v-48.8h30.8v7.2H407.9z"/>
</g>
</svg>
