<?xml version="1.0" encoding="utf-8"?>
<!-- Generator: Adobe Illustrator 21.1.0, SVG Export Plug-In . SVG Version: 6.00 Build 0)  -->
<svg version="1.1" id="Ebene_1" xmlns="http://www.w3.org/2000/svg" xmlns:xlink="http://www.w3.org/1999/xlink" x="0px" y="0px"
	 viewBox="0 0 165.9 79.7" width="165.9" height="79.7" style="enable-background:new 0 0 165.9 79.7;" xml:space="preserve">
<style type="text/css">
	.st0{fill:#FFFFFF;}
</style>
<g>
	<polygon class="st0" points="59.7,56.5 75.7,56.5 75.7,48.5 59.6,48.5 59.6,37.2 78.2,37.2 78.2,29.1 49.8,29.1 49.8,78 81.9,78 
		81.9,69.6 59.7,69.6 	"/>
	<path class="st0" d="M105.7,53.3c-0.9,2.7-2.2,6.7-2.8,9.8c-0.8-3.6-1.6-6.3-2.3-8.5l-8.1-25.4H81.8l16.6,48.8h8.9l17-48.8H114
		L105.7,53.3z"/>
	<path class="st0" d="M33.3,45.5c0.4,1.2,0.6,2.5,0.6,3.8c0,1.7-0.4,3.4-1,4.9l-4.6-8.7H20l11.3,21.1c6.1-3.5,10.2-10.1,10.2-17.6
		c0-1.2-0.1-2.4-0.3-3.5H33.3z"/>
	<path class="st0" d="M21.7,61.6c-5.5,0-10.1-3.6-11.7-8.5h12.6l-4.1-7.6H10c1.6-4.9,6.2-8.5,11.7-8.5c4.9,0,9.2,2.9,11.1,7.1h8.1
		c-2.2-8.9-10.2-15.4-19.7-15.4C10,28.7,1,37.8,1,49S10,69.3,21.2,69.3c3.2,0,6.2-0.7,8.9-2.1l-3.6-6.7
		C25.1,61.2,23.4,61.6,21.7,61.6z"/>
	<path class="st0" d="M6.7,15.8L8.1,9c0.3-1.4,0.6-3.1,0.7-3.8h0.1C9,6,9.2,7.4,9.6,9.1l1.5,6.7h2.3l3.1-13.4h-1.9l-1.4,6.8
		c-0.3,1.4-0.7,3.5-0.8,4.3h-0.1c-0.1-0.6-0.4-2.5-0.7-4L10,2.4H7.8L6.3,9.4c-0.3,1.5-0.6,3.1-0.7,4.1H5.4c-0.1-0.8-0.3-2.3-0.7-4.2
		L3.2,2.4h-2l3.2,13.4H6.7z"/>
	<path class="st0" d="M19,4.3c0.7,0,1.3-0.6,1.3-1.3c0-0.7-0.6-1.3-1.3-1.3c-0.7,0-1.3,0.6-1.3,1.3C17.8,3.7,18.3,4.3,19,4.3z"/>
	<polygon class="st0" points="18.1,15.7 19.9,15.7 19.9,5.8 18.1,6.1 	"/>
	<path class="st0" d="M23.2,15.7H25V9.5c0-1.1,0.9-2,2-2c0.2,0,0.3,0,0.5,0.1l0.6-1.8c-0.2-0.1-0.4-0.1-0.6-0.1
		c-1,0-1.9,0.6-2.6,1.7V7.2c0-0.5-0.2-1.1-0.3-1.5l-1.7,0.4c0.2,0.6,0.4,1.2,0.4,2.4V15.7z"/>
	<path class="st0" d="M37.1,14.7c-1.1,0-2.2-0.4-3.1-1L33.4,15c1.1,0.7,2.4,1,3.6,1c2.3,0,3.8-1.3,3.8-3.3c0-1.3-0.7-2.3-2.5-2.7
		L37,9.8c-1-0.2-1.4-0.6-1.4-1.3c0-0.9,0.7-1.5,1.7-1.5c0.8,0,1.5,0.3,2.4,0.7l0.6-1.3c-0.8-0.5-1.9-0.8-3.1-0.8
		c-2.1,0-3.5,1.2-3.5,3c0,1.4,0.8,2.4,2.4,2.7l1.2,0.2c1.1,0.2,1.6,0.7,1.6,1.5C38.9,14.1,38.2,14.7,37.1,14.7z"/>
	<path class="st0" d="M44.1,1.8c-0.7,0-1.3,0.6-1.3,1.3c0,0.7,0.5,1.3,1.2,1.3c0.7,0,1.3-0.6,1.3-1.3C45.4,2.3,44.8,1.8,44.1,1.8z"
		/>
	<polygon class="st0" points="43.2,15.7 45,15.7 45,5.8 43.2,6.1 	"/>
	<path class="st0" d="M50.1,15.7V8.6c0.7-0.7,1.7-1.2,2.4-1.2c0.4,0,0.8,0.1,1,0.4c0.2,0.3,0.3,0.6,0.3,1.5v6.6h1.8V8.4
		c0-0.4-0.1-0.9-0.2-1.2C54.9,6.3,54,5.8,53,5.8c-0.6,0-1.2,0.2-1.8,0.5c-0.4,0.2-0.7,0.5-1.3,0.9c0-0.6-0.1-1-0.3-1.5l-1.7,0.5
		c0.3,0.7,0.4,1.1,0.4,2.3v7.2H50.1z"/>
	<path class="st0" d="M62.2,15.9c1,0,1.8-0.4,2.5-1.1c0.1,0.5,0.1,0.6,0.2,0.9h1.7c-0.2-0.6-0.3-1.7-0.3-3.3V1.8l-1.8-0.3v3.8
		c0,0.7,0,1.4,0,1.7c-0.7-0.8-1.4-1.1-2.4-1.1c-0.7,0-1.3,0.2-1.9,0.6c-1.3,0.9-2,2.5-2,4.6C58.2,14,59.7,15.9,62.2,15.9z M60.7,8.3
		c0.4-0.6,0.9-1,1.7-1c0.9,0,1.6,0.3,2.1,0.9v5.1c-0.3,0.6-1,1.1-2.1,1.1c-0.7,0-1.1-0.2-1.4-0.5c-0.5-0.5-0.8-1.1-0.8-2.9
		C60.2,9.7,60.4,8.9,60.7,8.3z"/>
	<path class="st0" d="M73.9,15.7h1.8V7.3h2.1L78.3,6h-2.6V4.5c0-1,0.5-1.6,1.3-1.6c0.4,0,0.8,0.2,1.3,0.4l0.6-1.2
		c-0.6-0.4-1.3-0.5-2.1-0.5c-0.7,0-1.3,0.1-1.8,0.5c-0.5,0.4-1.1,1.1-1.1,2.4c0,0.2,0,1.4,0,1.6H73v1.3h0.9V15.7z"/>
	<path class="st0" d="M81.3,4.8c0.6,0,1.1-0.6,1.1-1.2s-0.5-1.2-1.1-1.2c-0.6,0-1.1,0.5-1.1,1.2S80.7,4.8,81.3,4.8z"/>
	<path class="st0" d="M82.5,16.1c1.2,0,2.2-0.4,2.9-1.4c0.2,0.7,0.4,1,0.9,1.4l1.2-1c-0.4-0.3-0.6-1-0.6-2V5.8l-1.8,0.4v7
		c-0.4,0.9-1.3,1.5-2.2,1.5c-0.4,0-0.9-0.2-1.1-0.4c-0.3-0.3-0.4-0.7-0.4-1.7V5.7l-1.8,0.3V13c0,0.7,0.1,1.2,0.2,1.6
		C80.3,15.5,81.3,16.1,82.5,16.1z"/>
	<path class="st0" d="M85.3,4.8c0.6,0,1.1-0.6,1.1-1.2s-0.5-1.2-1.1-1.2c-0.6,0-1.1,0.5-1.1,1.2S84.7,4.8,85.3,4.8z"/>
	<path class="st0" d="M90.3,15.7H92V9.5c0-1.1,0.9-2,2-2c0.2,0,0.3,0,0.5,0.1l0.6-1.8c-0.2-0.1-0.4-0.1-0.6-0.1
		c-1,0-1.9,0.6-2.6,1.7V7.2c0-0.5-0.2-1.1-0.3-1.5l-1.7,0.4c0.2,0.6,0.4,1.2,0.4,2.4V15.7z"/>
	<path class="st0" d="M104.5,14.5c-1.3,0-2.4-0.4-3.6-1.1l-0.7,1.4c1.3,0.8,2.8,1.2,4.3,1.2c3.5,0,5-2.3,5-4.1
		c0-2.1-1.5-3.2-3.3-3.8l-1.6-0.5c-1.4-0.4-2-1-2-1.9c0-1.2,0.9-2,2.4-2c1.1,0,1.9,0.3,3.2,1l0.8-1.3c-1.2-0.8-2.6-1.3-4.1-1.3
		c-2.6,0-4.4,1.6-4.4,3.9c0,1.9,1.1,2.9,3.2,3.5l1.4,0.4c1.5,0.4,2.2,1.2,2.2,2.3C107.3,13.6,106.2,14.5,104.5,14.5z"/>
	<path class="st0" d="M113,4.3c0.7,0,1.3-0.6,1.3-1.3c0-0.7-0.6-1.3-1.3-1.3c-0.7,0-1.3,0.6-1.3,1.3C111.7,3.7,112.3,4.3,113,4.3z"
		/>
	<polygon class="st0" points="112.1,15.7 113.9,15.7 113.9,5.8 112.1,6.1 	"/>
	<path class="st0" d="M120.7,5.7c-1.2,0-2.2,0.4-2.9,1.3c-0.8,1-1.2,2.1-1.2,3.8c0,3.2,1.6,5.1,4.3,5.1c1.3,0,2.4-0.4,3.4-1.2
		l-0.7-1.1c-0.7,0.6-1.5,0.9-2.4,0.9c-0.9,0-1.7-0.4-2.2-1.1c-0.3-0.5-0.4-1.1-0.4-1.9v-0.2h5.9V11c0-2.2-0.3-3.3-1.2-4.2
		C122.7,6.1,121.8,5.7,120.7,5.7z M118.6,10c0-1.8,0.7-2.9,2-2.9c0.6,0,1.1,0.3,1.4,0.7c0.4,0.5,0.6,1.3,0.6,2.2H118.6z"/>
	<path class="st0" d="M136.1,5.8c-0.6,0-1.2,0.2-1.8,0.5c-0.4,0.2-0.7,0.5-1.3,0.9c0-0.6-0.1-1-0.3-1.5L131,6.2
		c0.3,0.7,0.4,1.1,0.4,2.3v7.2h1.8V8.6c0.7-0.7,1.7-1.2,2.4-1.2c0.4,0,0.8,0.1,1,0.4c0.2,0.3,0.3,0.6,0.3,1.5v6.6h1.8V8.4
		c0-0.4-0.1-0.9-0.2-1.2C138.1,6.3,137.1,5.8,136.1,5.8z"/>
	<path class="st0" d="M148.4,12.6c0-1.4,0.1-2.9,0.1-3.6c0-0.9,0-1.3-0.2-1.7c-0.4-1-1.4-1.6-2.8-1.6c-1.9,0-3.1,0.7-4.1,1.3
		l0.8,1.3c0.8-0.6,2-1.1,3-1.1c1.4,0,1.5,0.8,1.5,1.9v0.6c-0.3,0-0.4,0-0.7,0c-3.1,0-4.9,1.2-4.9,3.4c0,1.9,1.2,2.8,3.1,2.8
		c1.7,0,2.5-1,2.8-1.3c0.2,0.7,0.7,1.2,1.3,1.4l0.9-1.2C148.4,14.5,148.4,13.9,148.4,12.6z M146.6,13.5c-0.4,0.8-1.2,1.3-2,1.3
		c-1,0-1.5-0.6-1.5-1.7c0-0.6,0.1-1,0.5-1.4c0.4-0.4,1.2-0.7,2.5-0.7c0.2,0,0.3,0,0.6,0L146.6,13.5z"/>
	<path class="st0" d="M156.6,5.8c-0.7,0-1.4,0.2-2.1,0.7c-0.4,0.3-0.6,0.4-1,0.8c0-0.5,0.1-0.9,0.1-1.3V3.8c0-0.9-0.1-1.7-0.2-2.2
		l-1.8,0.4c0.1,0.6,0.2,1.2,0.2,2v11.8h1.8v-7c0.8-0.9,1.7-1.4,2.6-1.4c0.5,0,0.9,0.2,1.1,0.4c0.2,0.2,0.3,0.7,0.3,1.4v6.7h1.7V8.8
		c0-0.9,0-1.1-0.2-1.6C158.7,6.4,157.7,5.8,156.6,5.8z"/>
	<path class="st0" d="M163.6,13.1c-0.8,0-1.4,0.7-1.4,1.5c0,0.8,0.6,1.5,1.4,1.5c0.8,0,1.4-0.7,1.4-1.5
		C165,13.8,164.4,13.1,163.6,13.1z"/>
	<path class="st0" d="M163.2,64.9c1.1-3.4,1.7-7.3,1.7-11.6c0-15.3-8-24.8-21-24.8c-3.7,0-7.2,0.8-10.1,2.4c-7,3.9-11,12.3-11,22.8
		c0,4,0.6,7.8,1.8,11.1c0.9,2.6,2.2,4.9,3.8,7c3.7,4.9,8.5,6.9,15.9,6.9c4.1,0,6.8-0.6,9.8-2.3C158.3,74.2,161.4,70.2,163.2,64.9z
		 M149.8,69.1c-1.7,1.1-3.3,1.5-5.7,1.5c-4.3,0-7.1-1.4-9.3-4.6c-0.2-0.3-0.4-0.7-0.6-1c-1.8-3-2.6-6.8-2.6-11.2
		c0-7.1,2.3-12.7,6.4-15.3c1.7-1,3.8-1.6,5.9-1.6c7.6,0,12.3,6.4,12.3,16.7c0,4.6-0.9,8.5-2.5,11.4
		C152.7,66.7,151.4,68.1,149.8,69.1z"/>
</g>
</svg>
