<svg xmlns="http://www.w3.org/2000/svg" id="Logo" viewBox="0 0 206.8 55">
  <style>
    .st0{fill:#FFFFFF;}
  </style>
  <path d="M106 36.7v-12l-5.2 7.8h-.1l-5.1-7.8v11.9h-4V18.3H96l4.8 7.8 4.8-7.8h4.3v18.3H106v.1zM126.2 36.7l-1.7-4.1h-7.8l-1.7 4.1h-4l7.9-18.3h3.7l7.9 18.3h-4.3zM120.7 23l-2.4 5.9h4.9l-2.5-5.9zM131.6 36.7V18.3h4v18.3h-4v.1zM151.4 36.7L142.5 25v11.7h-4V18.3h3.7l8.6 11.3V18.3h4v18.3h-3.4v.1zM157.1 36.7v-3.1l10.1-11.7h-9.8v-3.5h15v3.1l-10.1 11.7h10.1v3.5h-15.3zM174.7 36.7V18.3h13.8v3.6h-9.8v3.7h8.6v3.6h-8.6V33h10v3.6h-14v.1zM202.1 36.7l-3.9-5.9H195v5.9h-4V18.3h8.4c4.3 0 6.9 2.3 6.9 6v.1c0 3-1.6 4.8-3.9 5.7l4.5 6.5h-4.8v.1zm0-12.1c0-1.7-1.2-2.6-3.2-2.6h-4v5.3h4.1c2-.1 3.1-1.1 3.1-2.7z" class="st0"/>
  <g>
    <path d="M18.3 0L0 18.3h18.3zM73.3 0L55 18.3h18.3zM19.8 3.6l13.3 13.2H19.8V3.6M18.3 0v18.3h18.4L18.3 0zM55 0L36.7 18.3H55zM0 36.7h18.3L0 18.3zM73.3 36.7L55 18.3v18.4zM0 55h18.3V36.7zM55 55l18.3-18.3V55z" class="st0"/>
    <path d="M14.7 1.5L1.5 14.7V1.5h13.2M18.3 0H0v18.3L18.3 0zM69.7 1.5L56.5 14.7V1.5h13.2M73.3 0H55v18.3L73.3 0zM16.8 19.8v13.3L3.6 19.8h13.2m1.5-1.5H0l18.3 18.4V18.3zM71.8 19.8v13.3L58.6 19.8h13.2m1.5-1.5H55l18.3 18.4V18.3zM18.3 18.3l18.4 18.4V18.3z" class="st0"/>
    <path d="M51.4 19.8L38.2 33.1V19.8h13.2m3.6-1.5H36.7v18.4L55 18.3zM14.7 38.2L1.5 51.4V38.2h13.2m3.6-1.5H0V55l18.3-18.3zM69.7 38.2L56.5 51.4V38.2h13.2m3.6-1.5H55V55l18.3-18.3z" class="st0"/>
  </g>
  <g>
    <path d="M91.7 43.6h2.9c2.4 0 3.5 1.4 3.5 2.9 0 1.1-.6 2-1.5 2.4 1.3.3 2.2 1.4 2.2 2.8 0 1.9-1.4 3.3-3.9 3.3h-3.2V43.6zm2.7 4.9c1.4 0 2.2-.7 2.2-1.9 0-1.1-.6-1.8-2.1-1.8h-1.2v3.7h1.1zm.4 5.2c1.5 0 2.4-.6 2.4-2 0-1.2-.9-1.9-2.3-1.9h-1.8v3.9h1.7zM101.1 43.6h2.6c1.2 0 1.9.2 2.5.6 1 .6 1.5 1.6 1.5 2.6 0 1.6-.9 2.6-2.3 3 .3.2.8.8 1.4 1.8l2 3.4H107l-1.9-3.2c-.5-1-1-1.5-1.3-1.6h-1.2V55h-1.5V43.6zm2.6 5.4c.6 0 1.1-.1 1.5-.4.6-.3.9-.9.9-1.8 0-.7-.2-1.2-.7-1.6-.3-.3-.9-.5-1.7-.5h-1V49h1zM110.8 43.6h5.8l-.5 1.3h-3.8v3.7h3.7v1.3h-3.7v3.9h4.3V55h-5.9l.1-11.4zM119.1 43.6h1.5V55h-1.5V43.6zM125.7 44.8h-3.3v-1.3h8.5l-.4 1.3h-3.2V55h-1.5V44.8h-.1zM132.4 43.6h2.9c2.4 0 3.5 1.4 3.5 2.9 0 1.1-.6 2-1.5 2.4 1.3.3 2.2 1.4 2.2 2.8 0 1.9-1.4 3.3-3.9 3.3h-3.2V43.6zm2.7 4.9c1.4 0 2.2-.7 2.2-1.9 0-1.1-.6-1.8-2.1-1.8H134v3.7h1.1zm.4 5.2c1.5 0 2.4-.6 2.4-2 0-1.2-.9-1.9-2.3-1.9h-1.8v3.9h1.7zM145 43.5h1.1l4.4 11.5h-1.6l-1.1-3h-4.4l-1.1 3h-1.6l4.3-11.5zm2.3 7.2l-1.1-3c-.3-1-.5-1.5-.6-1.9-.1.4-.3 1-.7 1.9l-1.1 3h3.5zM152.3 43.6h1.5l5.2 6.7c.7.9 1.2 1.6 1.5 2.1v-8.9h1.5V55h-1.3l-5.4-7c-.6-.8-1.1-1.5-1.5-2.1 0 .5.1 1.1.1 1.9V55h-1.5V43.6h-.1zM164.9 43.6h3c4.1 0 6.1 2.4 6.1 5.7s-2.1 5.8-6.2 5.8h-2.9V43.6zm2.9 10.1c3.4 0 4.6-2.1 4.6-4.5 0-2.5-1.5-4.4-4.6-4.4h-1.3v8.9h1.3z" class="st0"/>
  </g>
</svg>
