<?xml version="1.0" encoding="utf-8"?>
<!-- Generator: Adobe Illustrator 21.1.0, SVG Export Plug-In . SVG Version: 6.00 Build 0)  -->
<svg version="1.1" id="Logo" xmlns="http://www.w3.org/2000/svg" xmlns:xlink="http://www.w3.org/1999/xlink" x="0px" y="0px"
	 viewBox="0 0 206.8 55" width="206.8" height="55" style="enable-background:new 0 0 206.8 55;" xml:space="preserve">
<style type="text/css">
	.st0{fill:#FFFFFF;}
</style>
<g>
	<g>
		<path class="st0" d="M106,36.7v-12l-5.2,7.8h-0.1l-5.1-7.8v11.9h-4V18.3H96l4.8,7.8l4.8-7.8h4.3v18.3H106z"/>
		<path class="st0" d="M126.2,36.7l-1.7-4.1h-7.8l-1.7,4.1H111l7.9-18.3h3.7l7.9,18.3H126.2z M120.7,23l-2.4,5.9h4.9L120.7,23z"/>
		<path class="st0" d="M131.6,36.7V18.3h4v18.3H131.6z"/>
		<path class="st0" d="M151.4,36.7L142.5,25v11.7h-4V18.3h3.7l8.6,11.3V18.3h4v18.3H151.4z"/>
		<path class="st0" d="M157.1,36.7v-3.1l10.1-11.7h-9.8v-3.5h15v3.1l-10.1,11.7h10.1v3.5H157.1z"/>
		<path class="st0" d="M174.7,36.7V18.3h13.8v3.6h-9.8v3.7h8.6v3.6h-8.6v3.8h10v3.6H174.7z"/>
		<path class="st0" d="M202.1,36.7l-3.9-5.9H195v5.9h-4V18.3h8.4c4.3,0,6.9,2.3,6.9,6v0.1c0,3-1.6,4.8-3.9,5.7l4.5,6.5H202.1z
			 M202.1,24.6c0-1.7-1.2-2.6-3.2-2.6h-4v5.3h4.1C201,27.2,202.1,26.2,202.1,24.6L202.1,24.6z"/>
	</g>
	<g>
		<polygon class="st0" points="18.3,0 0,18.3 18.3,18.3 		"/>
		<polygon class="st0" points="73.3,0 55,18.3 73.3,18.3 		"/>
		<polygon class="st0" points="18.3,0 18.3,18.3 36.7,18.3 		"/>
		<polygon class="st0" points="55,0 36.7,18.3 55,18.3 		"/>
		<polygon class="st0" points="0,36.7 18.3,36.7 0,18.3 		"/>
		<polygon class="st0" points="73.3,36.7 55,18.3 55,36.7 		"/>
		<polygon class="st0" points="0,55 18.3,55 18.3,36.7 		"/>
		<polygon class="st0" points="55,55 73.3,36.7 73.3,55 		"/>
		<polygon class="st0" points="0,0 0,18.3 18.3,0 		"/>
		<polygon class="st0" points="55,0 55,18.3 73.3,0 		"/>
		<polygon class="st0" points="0,18.3 18.3,36.7 18.3,18.3 		"/>
		<polygon class="st0" points="55,18.3 73.3,36.7 73.3,18.3 		"/>
		<polygon class="st0" points="18.3,18.3 36.7,36.7 36.7,18.3 		"/>
		<polygon class="st0" points="55,18.3 36.7,36.7 36.7,18.3 		"/>
		<polygon class="st0" points="0,36.7 0,55 18.3,36.7 		"/>
		<polygon class="st0" points="73.3,36.7 55,55 55,36.7 		"/>
	</g>
	<g>
		<path class="st0" d="M91.7,43.6h2.9c2.4,0,3.5,1.4,3.5,2.9c0,1.1-0.6,2-1.5,2.4v0c1.3,0.3,2.2,1.4,2.2,2.8c0,1.9-1.4,3.3-3.9,3.3
			h-3.2V43.6z M94.4,48.5c1.4,0,2.2-0.7,2.2-1.9c0-1.1-0.6-1.8-2.1-1.8h-1.2v3.7H94.4z M94.8,53.7c1.5,0,2.4-0.6,2.4-2
			c0-1.2-0.9-1.9-2.3-1.9h-1.8v3.9H94.8z"/>
		<path class="st0" d="M101.1,43.6h2.6c1.2,0,1.9,0.2,2.5,0.6c1,0.6,1.5,1.6,1.5,2.6c0,1.6-0.9,2.6-2.3,3v0c0.3,0.2,0.8,0.8,1.4,1.8
			l2,3.4H107l-1.9-3.2c-0.5-1-1-1.5-1.3-1.6h-1.2V55h-1.5V43.6z M103.7,49c0.6,0,1.1-0.1,1.5-0.4c0.6-0.3,0.9-0.9,0.9-1.8
			c0-0.7-0.2-1.2-0.7-1.6c-0.3-0.3-0.9-0.5-1.7-0.5h-1V49H103.7z"/>
		<path class="st0" d="M110.8,43.6h5.8l-0.5,1.3h-3.8v3.7h3.7v1.3h-3.7v3.9h4.3V55h-5.9V43.6z"/>
		<path class="st0" d="M119.1,43.6h1.5V55h-1.5V43.6z"/>
		<path class="st0" d="M125.7,44.8h-3.3v-1.3h8.5l-0.4,1.3h-3.2V55h-1.5V44.8z"/>
		<path class="st0" d="M132.4,43.6h2.9c2.4,0,3.5,1.4,3.5,2.9c0,1.1-0.6,2-1.5,2.4v0c1.3,0.3,2.2,1.4,2.2,2.8c0,1.9-1.4,3.3-3.9,3.3
			h-3.2V43.6z M135.1,48.5c1.4,0,2.2-0.7,2.2-1.9c0-1.1-0.6-1.8-2.1-1.8h-1.2v3.7H135.1z M135.5,53.7c1.5,0,2.4-0.6,2.4-2
			c0-1.2-0.9-1.9-2.3-1.9h-1.8v3.9H135.5z"/>
		<path class="st0" d="M145,43.5h1.1l4.4,11.5h-1.6l-1.1-3h-4.4l-1.1,3h-1.6L145,43.5z M147.3,50.7l-1.1-3c-0.3-1-0.5-1.5-0.6-1.9h0
			c-0.1,0.4-0.3,1-0.7,1.9l-1.1,3H147.3z"/>
		<path class="st0" d="M152.3,43.6h1.5l5.2,6.7c0.7,0.9,1.2,1.6,1.5,2.1h0c0-0.6,0-1.2,0-2v-6.9h1.5V55h-1.3l-5.4-7
			c-0.6-0.8-1.1-1.5-1.5-2.1h0c0,0.5,0.1,1.1,0.1,1.9V55h-1.5V43.6z"/>
		<path class="st0" d="M164.9,43.6h3c4.1,0,6.1,2.4,6.1,5.7c0,3.3-2.1,5.8-6.2,5.8h-2.9V43.6z M167.8,53.7c3.4,0,4.6-2.1,4.6-4.5
			c0-2.5-1.5-4.4-4.6-4.4h-1.3v8.9H167.8z"/>
	</g>
</g>
</svg>
