<?xml version="1.0" encoding="iso-8859-1"?>
<!-- Generator: Adobe Illustrator 22.0.0, SVG Export Plug-In . SVG Version: 6.00 Build 0)  -->
<svg version="1.1" id="Ebene_1_1_" xmlns="http://www.w3.org/2000/svg" xmlns:xlink="http://www.w3.org/1999/xlink" x="0px" y="0px"
	 viewBox="0 0 89.4 32.7" style="enable-background:new 0 0 89.4 32.7;" width="89.4" height="32.7" xml:space="preserve">
<g>
	<path style="fill:#FFFFFF;" d="M28.8,27.3h-0.6v4h0.6c0.2,0,0.3-0.1,0.3-0.2v-3.4C29.2,27.4,29,27.3,28.8,27.3z"/>
	<polygon style="fill:#FFFFFF;" points="31.1,14.9 28.9,14.9 28.9,11.2 30.9,11.2 30.9,9.9 28.9,9.9 28.9,6.6 31.1,6.6 31.1,5.3 
		27.5,5.3 27.5,16.2 31.1,16.2 	"/>
	<rect x="31" y="26.7" style="fill:#FFFFFF;" width="0.8" height="5.3"/>
	<polygon style="fill:#FFFFFF;" points="21.7,29.8 20.9,26.7 19.9,26.7 19.9,31.9 20.8,31.9 20.7,28.5 21.3,31 22,31 22.6,28.5 
		22.5,31.9 23.4,31.9 23.4,26.7 22.4,26.7 	"/>
	<path style="fill:#FFFFFF;" d="M34.5,26.7h-0.6c-0.7,0-1,0.3-1,0.9V32h0.8v-2h1v1.9h0.8v-4.4C35.5,27,35.1,26.7,34.5,26.7z
		 M34.6,29.4h-1v-1.8c0-0.2,0.1-0.3,0.4-0.3h0.2c0.2,0,0.4,0.1,0.4,0.3C34.6,27.6,34.6,29.4,34.6,29.4z"/>
	<polygon style="fill:#FFFFFF;" points="25.8,16.2 25.8,5.3 24.3,5.3 24.3,10.5 22.7,5.3 21.3,5.3 21.3,16.2 22.7,16.2 22.7,9 
		24.3,14 24.3,16.2 	"/>
	<path style="fill:#FFFFFF;" d="M39.9,14.6V7.4c0-1.4-0.7-2.1-2.1-2.1h-2.5v10.9h2.9C39.3,16.2,39.9,15.6,39.9,14.6z M36.8,14.9V6.6
		h1c0.4,0,0.7,0.3,0.7,0.8v7c0,0.3-0.2,0.5-0.6,0.5H36.8z"/>
	<rect x="32.3" y="8.3" style="fill:#FFFFFF;" width="1.6" height="1.9"/>
	<path style="fill:#FFFFFF;" d="M39.9,26.7h-0.8c-0.7,0-1,0.3-1,0.9V31c0,0.6,0.3,0.9,1,0.9h0.8c0.7,0,1-0.3,1-0.9v-3.5
		C40.9,27,40.6,26.7,39.9,26.7z M40.1,31c0,0.2-0.1,0.3-0.3,0.3h-0.4c-0.3,0-0.4-0.1-0.4-0.3v-3.4c0-0.2,0.1-0.3,0.4-0.3h0.4
		c0.3,0,0.4,0.1,0.4,0.3V31H40.1z"/>
	<path style="fill:#FFFFFF;" d="M6.8,28.9v-1.3c0-0.6-0.3-0.9-1-0.9H4.1V32H5v-2.1h0.5L6.1,32h0.8l-0.6-2.2
		C6.6,29.6,6.8,29.3,6.8,28.9z M5.9,28.8c0,0.3-0.1,0.4-0.4,0.4H5v-1.9h0.6c0.3,0,0.4,0.1,0.4,0.4v1.1H5.9z"/>
	<polygon style="fill:#FFFFFF;" points="16.9,14.9 14.9,14.9 14.9,5.3 13.4,5.3 13.4,16.2 16.9,16.2 	"/>
	<path style="fill:#FFFFFF;" d="M5.5,14.3V7.1c0-1.2-0.6-1.9-1.8-1.9H2.4c-1.2,0-1.8,0.6-1.8,1.9v7.2c0,1.2,0.6,1.9,1.8,1.9h1.4
		C4.9,16.2,5.5,15.6,5.5,14.3z M4.1,14.2c0,0.4-0.2,0.6-0.6,0.6H2.7c-0.4,0-0.7-0.2-0.7-0.6v-7c0-0.4,0.2-0.6,0.6-0.6h0.7
		C3.7,6.6,4,6.8,4,7.2v7H4.1z"/>
	<path style="fill:#FFFFFF;" d="M2.2,26.7H1.7c-0.7,0-1,0.3-1,0.9V31c0,0.6,0.3,0.9,1,0.9h0.5c0.7,0,1-0.3,1-0.9v-0.3H2.4V31
		c0,0.2-0.1,0.3-0.3,0.3H1.9c-0.2,0-0.3-0.1-0.3-0.3v-3.4c0-0.2,0.1-0.3,0.3-0.3H2c0.3,0,0.4,0.1,0.4,0.3v0.5h0.8v-0.6
		C3.3,27,2.9,26.7,2.2,26.7z"/>
	<rect x="32.3" y="14.3" style="fill:#FFFFFF;" width="1.6" height="1.9"/>
	<path style="fill:#FFFFFF;" d="M12.9,26.7h-0.5c-0.7,0-1,0.3-1,0.9v1.1c0,0.1,0,0.2,0.1,0.3c0,0.1,0.1,0.2,0.2,0.2
		c0.1,0.1,0.2,0.1,0.4,0.2l0.8,0.4c0.1,0.1,0.2,0.1,0.2,0.1s0.1,0.1,0.1,0.2V31c0,0.2-0.1,0.3-0.3,0.3h-0.2c-0.3,0-0.4-0.1-0.4-0.3
		v-0.3h-0.8V31c0,0.6,0.3,1,1,1H13c0.7,0,1-0.3,1-0.9V30c0-0.2,0-0.3-0.1-0.4c0-0.1-0.1-0.1-0.2-0.2c-0.1,0-0.2-0.1-0.4-0.2
		l-0.8-0.4c-0.1-0.1-0.2-0.1-0.2-0.1s-0.1-0.1-0.1-0.2v-0.9c0-0.2,0.1-0.3,0.4-0.3h0.1c0.2,0,0.4,0.1,0.4,0.3v0.5H14v-0.5
		C14,27,13.6,26.7,12.9,26.7z"/>
	<path style="fill:#FFFFFF;" d="M16.4,26.7h-0.5c-0.7,0-1,0.3-1,0.9v1.1c0,0.1,0,0.2,0.1,0.3c0,0.1,0.1,0.2,0.2,0.2
		c0.1,0.1,0.2,0.1,0.4,0.2l0.8,0.4c0.1,0.1,0.2,0.1,0.2,0.1s0.1,0.1,0.1,0.2V31c0,0.2-0.1,0.3-0.3,0.3H16c-0.3,0-0.4-0.1-0.4-0.3
		v-0.3h-0.8V31c0,0.6,0.3,1,1,1h0.5c0.7,0,1-0.3,1-0.9V30c0-0.2,0-0.3-0.1-0.4c0-0.1-0.1-0.1-0.2-0.2c-0.1,0-0.2-0.1-0.4-0.2
		L16,28.8c-0.1-0.1-0.2-0.1-0.2-0.1s-0.1-0.1-0.1-0.2v-0.9c0-0.2,0.1-0.3,0.4-0.3h0.1c0.2,0,0.4,0.1,0.4,0.3v0.5h0.8v-0.5
		C17.4,27,17,26.7,16.4,26.7z"/>
	<path style="fill:#FFFFFF;" d="M9.5,26.7H8.7c-0.7,0-1,0.3-1,0.9V31c0,0.6,0.3,0.9,1,0.9h0.8c0.7,0,1-0.3,1-0.9v-3.5
		C10.5,27,10.2,26.7,9.5,26.7z M9.7,31c0,0.2-0.1,0.3-0.3,0.3H8.9c-0.3,0-0.4-0.1-0.4-0.3v-3.4c0-0.2,0.1-0.3,0.4-0.3h0.4
		c0.3,0,0.4,0.1,0.4,0.3C9.7,27.6,9.7,31,9.7,31z"/>
	<rect x="18.1" y="5.3" style="fill:#FFFFFF;" width="1.5" height="10.9"/>
	<polygon style="fill:#FFFFFF;" points="24.4,31.9 26.5,31.9 26.5,31.3 25.3,31.3 25.3,29.5 26.4,29.5 26.4,28.9 25.3,28.9 
		25.3,27.3 26.5,27.3 26.5,26.7 24.4,26.7 	"/>
	<polygon style="fill:#FFFFFF;" points="8.6,9 10.2,14 10.2,16.2 11.7,16.2 11.7,5.3 10.2,5.3 10.2,10.5 8.6,5.3 7.2,5.3 7.2,16.2 
		8.6,16.2 	"/>
	<path style="fill:#FFFFFF;" d="M64.4,26.7h-0.6c-0.7,0-1,0.3-1,0.9V32h0.8v-2h1v1.9h0.8v-4.4C65.4,27,65.1,26.7,64.4,26.7z
		 M64.5,29.4h-1v-1.8c0-0.2,0.1-0.3,0.4-0.3h0.2c0.2,0,0.4,0.1,0.4,0.3V29.4z"/>
	<rect x="69.9" y="26.7" style="fill:#FFFFFF;" width="0.8" height="5.3"/>
	<polygon style="fill:#FFFFFF;" points="73.4,31.9 75.6,31.9 75.6,31.3 74.3,31.3 74.3,29.5 75.4,29.5 75.4,28.9 74.3,28.9 
		74.3,27.3 75.6,27.3 75.6,26.7 73.4,26.7 	"/>
	<polygon style="fill:#FFFFFF;" points="72.5,26.7 71.7,26.7 70.8,29.3 70.8,29.4 71.9,31.9 72.7,31.9 71.6,29.3 	"/>
	<path style="fill:#FFFFFF;" d="M63.4,16.2V7.1c0-1.2-0.6-1.9-1.8-1.9h-1.1c-1.2,0-1.8,0.6-1.8,1.9v9.1h1.5v-4H62v4H63.4z
		 M60.3,10.9V7.2c0-0.4,0.2-0.6,0.6-0.6h0.4c0.4,0,0.6,0.2,0.6,0.6v3.6h-1.6V10.9z"/>
	<polygon style="fill:#FFFFFF;" points="60,29.8 59.2,26.7 58.3,26.7 58.3,31.9 59.2,31.9 59.1,28.5 59.7,31 60.4,31 61,28.5 
		60.9,31.9 61.7,31.9 61.7,26.7 60.8,26.7 	"/>
	<path style="fill:#FFFFFF;" d="M86.3,26.7h-0.6c-0.7,0-1,0.3-1,0.9V31c0,0.6,0.3,0.9,1,0.9h1.7v-2.6h-1.3V30h0.4v1.3h-0.6
		c-0.2,0-0.4-0.1-0.4-0.4v-3.2c0-0.3,0.1-0.4,0.4-0.4h0.2c0.2,0,0.4,0.1,0.4,0.4v0.5h0.8v-0.6C87.4,27,87,26.7,86.3,26.7z"/>
	<polygon style="fill:#FFFFFF;" points="66.7,21 73.7,21 77.7,14.5 81.8,21 88.8,21 81.9,10.5 88.2,0.7 81.4,0.7 77.9,7 74.3,0.7 
		67.4,0.7 73.7,10.4 	"/>
	<polygon style="fill:#FFFFFF;" points="76.1,27.3 76.9,27.3 76.9,31.9 77.7,31.9 77.7,27.3 78.6,27.3 78.6,26.7 76.1,26.7 	"/>
	<rect x="79.3" y="26.7" style="fill:#FFFFFF;" width="0.8" height="5.3"/>
	<polygon style="fill:#FFFFFF;" points="82.9,29.2 82,26.7 81.1,26.7 81.1,31.9 82,31.9 82,28.5 82.9,30.9 82.9,31.9 83.7,31.9 
		83.7,26.7 82.9,26.7 	"/>
	<polygon style="fill:#FFFFFF;" points="46.4,26.7 45.5,26.7 45.5,31.9 47.5,31.9 47.5,31.3 46.4,31.3 	"/>
	<rect x="48.2" y="26.7" style="fill:#FFFFFF;" width="0.8" height="5.3"/>
	<polygon style="fill:#FFFFFF;" points="51.9,29.2 50.9,26.7 50.1,26.7 50.1,31.9 50.9,31.9 50.9,28.5 51.9,30.9 51.9,31.9 
		52.7,31.9 52.7,26.7 51.9,26.7 	"/>
	<rect x="41.6" y="5.3" style="fill:#FFFFFF;" width="1.5" height="10.9"/>
	<path style="fill:#FFFFFF;" d="M47.4,5.3h-1c-1.1,0-1.7,0.6-1.7,1.9v7.2c0,1.2,0.6,1.8,1.7,1.8h2.9v-5.3H47v1.3h0.8v2.7h-1
		c-0.4,0-0.6-0.3-0.6-0.8V7.4c0-0.5,0.2-0.8,0.6-0.8h0.4c0.4,0,0.6,0.3,0.6,0.8v1h1.5V7.2C49.2,5.9,48.6,5.3,47.4,5.3z"/>
	<polygon style="fill:#FFFFFF;" points="43.6,29.2 42.7,26.7 41.9,26.7 41.9,31.9 42.7,31.9 42.7,28.5 43.6,30.9 43.6,31.9 
		44.5,31.9 44.5,26.7 43.6,26.7 	"/>
	<rect x="50.8" y="5.3" style="fill:#FFFFFF;" width="1.5" height="10.9"/>
	<path style="fill:#FFFFFF;" d="M69,28.9v-1.3c0-0.6-0.3-0.9-1-0.9h-1.7V32h0.8v-2.1h0.5l0.6,2.1H69l-0.6-2.2
		C68.8,29.6,69,29.3,69,28.9z M68.2,28.8c0,0.3-0.1,0.4-0.4,0.4h-0.6v-1.9h0.6c0.3,0,0.4,0.1,0.4,0.4V28.8z"/>
	<polygon style="fill:#FFFFFF;" points="53.7,31.9 55.8,31.9 55.8,31.3 54.6,31.3 54.6,29.5 55.7,29.5 55.7,28.9 54.6,28.9 
		54.6,27.3 55.8,27.3 55.8,26.7 53.7,26.7 	"/>
	<polygon style="fill:#FFFFFF;" points="53.4,6.6 54.9,6.6 54.9,16.2 56.3,16.2 56.3,6.6 57.7,6.6 57.7,5.3 53.4,5.3 	"/>
	<polygon style="fill:#FFFFFF;" points="68.6,14.9 66.6,14.9 66.6,5.3 65.1,5.3 65.1,16.2 68.6,16.2 	"/>
</g>
</svg>
