<?xml version="1.0" encoding="utf-8"?>
<!-- Generator: Adobe Illustrator 21.1.0, SVG Export Plug-In . SVG Version: 6.00 Build 0)  -->
<svg version="1.1" id="Layer_1" xmlns="http://www.w3.org/2000/svg" xmlns:xlink="http://www.w3.org/1999/xlink" x="0px" y="0px"
	 viewBox="0 0 216 70" width="216" height="70" style="enable-background:new 0 0 216 70;" xml:space="preserve">
<style type="text/css">
	.st0{fill:#FFFFFF;}
</style>
<g>
		<path class="st0" d="M36,51.9c-1.9-3.8-4.2-7.6-8.6-7.6c-0.8,0-1.7,0.1-2.4,0.5l-1.5-3c1.8-1.6,4.8-2.8,8.5-2.8
			c5.9,0,8.9,2.8,11.3,6.4c1.4-3.1,2.1-7.2,2.1-12.4c0-12.9-4-19.5-13.4-19.5c-9.3,0-13.3,6.6-13.3,19.5c0,12.8,4,19.4,13.3,19.4
			C33.4,52.4,34.8,52.2,36,51.9z M38.3,56.3c-2,0.5-4.2,0.8-6.3,0.8C19.6,57.2,7.5,47.3,7.5,33c0-14.5,12.1-24.3,24.4-24.3
			c12.6,0,24.5,9.8,24.5,24.3c0,8.1-3.8,14.7-9.3,18.9c1.8,2.7,3.6,4.4,6.1,4.4c2.8,0,3.9-2.1,4.1-3.8H61C61.3,54.7,60.1,64,50,64
			C43.9,64,40.7,60.5,38.3,56.3z"/>
		<path class="st0" d="M64.4,44.1V27.5c0-1.9-0.7-2.7-2.9-2.7h-2.3v-4.4h15.1v23.5c0,4,2.1,5.7,5.4,5.7c2.7,0,5.4-1.2,6.8-3.9V27.5
			c0-1.9-0.7-2.7-2.9-2.7h-2.4v-4.4h15.2V45c0,2.4,0.9,3.6,3.7,3.6h0.5v4.5L87,55.2v-4.7h-0.3c-2.6,3.2-6.3,5.4-11.6,5.4
			C69.2,55.9,64.4,52.9,64.4,44.1z"/>
		<path class="st0" d="M120.4,51.5c5.4,0,7.4-4.7,7.5-14c0.1-9.2-2.1-13.6-7.5-13.6c-4.7,0-7.6,4.4-7.6,13.6
			C112.8,46.9,115.7,51.5,120.4,51.5z M120.4,55.9c-9.7,0-18.4-7.4-18.4-18.5c0-10.8,8.5-18,18.4-18c10.3,0,18.6,7.3,18.6,18
			C139,48.5,130.7,55.9,120.4,55.9z"/>
		<path class="st0" d="M139.3,55.2v-4.4h1.5c3.6,0,4-1,4-4.2V27.5c0-1.9-1-2.7-3.2-2.7h-2v-4.4h13.8l0.7,7.2h0.3
			c1.5-5.2,5.7-7.9,9.5-7.9c3.2,0,5.7,1.8,5.7,5.5c0,2.6-1.2,5.3-4.7,5.3c-3.1,0-3.7-2.1-6.3-2.1c-2.3,0-4.1,2.2-4.1,5.4v12.9
			c0,3.1,0.8,4.2,4.3,4.2h2v4.4H139.3z"/>
		<path class="st0" d="M185.3,50.1c4.4,0,6.2-4.2,6.2-8.4v-5.6c-3.2,3.3-10.7,3.4-10.7,9.4C180.8,48.5,182.6,50.1,185.3,50.1z
			 M191.7,50.1c-1.8,3.5-5.5,5.8-10.8,5.8c-6.1,0-10-3.2-10-8.9c0-11.4,15.9-8.4,20.5-15.9v-0.8c0-5.8-2.3-6.7-4.8-6.7
			c-7.1,0-3.8,7.6-10.3,7.6c-3.1,0-4.3-1.9-4.3-4c0-4.3,5.1-7.8,14.7-7.8c9.1,0,14.7,2.5,14.7,11.6v14.5c0,2.2,0.8,3.4,2.8,3.4
			c0.8,0,1.5-0.2,2.1-0.6l1.2,2.8c-1,1.5-3.5,4.1-8.3,4.1c-4.2,0-6.8-2-7.2-5.1H191.7z"/>
	</g>
</svg>
